<?xml version="1.0" encoding="utf-8"?>
<!-- Generator: Adobe Illustrator 20.1.0, SVG Export Plug-In . SVG Version: 6.00 Build 0)  -->
<svg version="1.1" id="Layer_1" xmlns="http://www.w3.org/2000/svg" xmlns:xlink="http://www.w3.org/1999/xlink" x="0px" y="0px"
	 viewBox="0 0 339.9 109.7" style="enable-background:new 0 0 339.9 109.7;" xml:space="preserve">
<style type="text/css">
	.st0{fill:#0E6EB7;}
	.st1{fill:#72217B;}
	.st2{fill:#B12384;}
	.st3{fill:#D82B80;}
	.st4{fill:#004691;}
</style>
<g>
	<path class="st0" d="M53.7,25.8H41.2c-3.7,0-6.7-3-6.7-6.7V6.7c0-3.7,3-6.7,6.7-6.7h12.4c3.7,0,6.7,3,6.7,6.7v12.4
		C60.4,22.8,57.4,25.8,53.7,25.8"/>
	<path class="st1" d="M21.5,53.7h-14c-4.2,0-7.5-3.4-7.5-7.5v-14c0-4.2,3.4-7.5,7.5-7.5h14c4.2,0,7.5,3.4,7.5,7.5v14
		C29,50.3,25.7,53.7,21.5,53.7"/>
	<path class="st2" d="M20.2,82.7h-8.5c-2.5,0-4.6-2.1-4.6-4.6v-8.5C7,67,9.1,65,11.6,65h8.5c2.5,0,4.6,2.1,4.6,4.6v8.5
		C24.8,80.6,22.7,82.7,20.2,82.7"/>
	<path class="st3" d="M43.1,109.7H33c-3,0-5.4-2.4-5.4-5.4V94.2c0-3,2.4-5.4,5.4-5.4h10.1c3,0,5.4,2.4,5.4,5.4v10.1
		C48.5,107.3,46.1,109.7,43.1,109.7"/>
	<path class="st3" d="M80.1,30.9h-7c-2.1,0-3.8-1.7-3.8-3.8v-7c0-2.1,1.7-3.8,3.8-3.8h7c2.1,0,3.8,1.7,3.8,3.8v7
		C83.9,29.2,82.2,30.9,80.1,30.9"/>
	<path class="st4" d="M233.2,35.6c2.2,0,4-1.8,4-4c0-2.2-1.8-4-4-4c-2.2,0-4,1.8-4,4C229.2,33.8,231,35.6,233.2,35.6"/>
	<path class="st4" d="M86.1,78.6c-0.6,0.9-1.6,1.4-2.7,1.4c-0.6,0-1.3-0.2-1.9-0.5C80.6,79,80,77.8,80,76.6c0-0.5,0.2-1.1,0.5-1.6
		l9.4-14.7l-9.4-14.7C80.1,45.1,80,44.5,80,44c0-1.1,0.5-2.3,1.6-2.8c0.5-0.3,1.1-0.5,1.7-0.5c1.1,0,2.2,0.5,2.8,1.4l7.6,12.1
		l7.7-12.1c0.6-0.9,1.7-1.4,2.8-1.4c0.6,0,1.2,0.2,1.7,0.5c1,0.5,1.6,1.7,1.6,2.8c0,0.5-0.2,1.2-0.5,1.6l-9.4,14.7l9.4,14.7
		c0.3,0.5,0.5,1,0.5,1.6c0,1.2-0.6,2.3-1.5,2.9c-0.5,0.3-1.2,0.5-1.9,0.5c-1.1,0-2.1-0.5-2.7-1.4l-7.7-12L86.1,78.6z"/>
	<path class="st4" d="M119.4,45.3c3.5-3.2,8.3-5.1,13.4-5.1c11.2,0,20.2,9,20.2,20.2c0,11.1-9,20-20.2,20c-5.1,0-9.9-1.9-13.4-5.1
		v17.2c0,1.7-1.6,3.2-3.4,3.2c-1.6,0-3.3-1.5-3.3-3.2V43.7c0-1.7,1.6-3.2,3.3-3.2c1.8,0,3.4,1.5,3.4,3.2V45.3z M132.8,46.9
		c-7.5,0-13.4,5.9-13.4,13.5c0,7.5,5.9,13.4,13.4,13.4c7.6,0,13.5-5.9,13.5-13.4C146.3,52.8,140.4,46.9,132.8,46.9"/>
	<path class="st4" d="M210.1,56.7v20.2c0,1.7-1.6,3.2-3.3,3.2c-1.8,0-3.4-1.5-3.4-3.2V43.7c0-1.7,1.6-3.2,3.4-3.2
		c1.6,0,3.2,1.4,3.3,3c2.7-2.1,6.2-3.3,10.1-3.4c2.1,0,3.7,1.6,3.7,3.3c0,1.8-1.6,3.4-3.7,3.4C214.9,47,210.1,48.9,210.1,56.7"/>
	<path class="st4" d="M233.3,40.5c-1.8,0-3.4,1.5-3.4,3.2v33.2c0,1.7,1.6,3.2,3.4,3.2c1.6,0,3.3-1.5,3.3-3.2V43.7
		C236.6,41.9,234.9,40.5,233.3,40.5"/>
	<path class="st4" d="M275.6,43.7c0-1.7,1.6-3.2,3.4-3.2c1.6,0,3.3,1.5,3.3,3.2v33.2c0,1.7-1.6,3.2-3.3,3.2c-1.8,0-3.4-1.5-3.4-3.2
		v-1.6c-3.6,3.2-8.3,5.1-13.4,5.1c-11.2,0-20.2-9-20.2-20.2c0-11.1,9-20,20.2-20c5.1,0,9.8,1.9,13.4,5.1V43.7z M262.2,73.7
		c7.5,0,13.4-5.9,13.4-13.5c0-7.5-5.9-13.4-13.4-13.4c-7.6,0-13.5,5.9-13.5,13.4C248.7,67.7,254.7,73.7,262.2,73.7"/>
	<path class="st4" d="M316,57.1c0-5.5-4.8-10.4-10.4-10.4c-5.4,0-10.4,2.2-10.4,10v20.2c0,1.7-1.6,3.2-3.3,3.2
		c-1.8,0-3.4-1.5-3.4-3.2V43.7c0-1.7,1.6-3.2,3.4-3.2c1.6,0,3.2,1.4,3.3,3c2.8-2.2,6.4-3.4,10.3-3.4c9,0,17.1,7.1,17.1,16v20.7
		c0,1.7-1.6,3.2-3.3,3.2c-1.8,0-3.4-1.5-3.4-3.2V57.1z"/>
	<path class="st4" d="M78.1,59.1c-0.2-10.2-9.3-18.9-20-18.9c-11.2,0-20.2,9-20.2,20c0,11.2,9,20.2,20.2,20.2c5.4,0,10.4-2.1,14-5.7
		c0.7-0.6,1.2-1.6,1.2-2.5c0-1.8-1.6-3.4-3.4-3.4c-1,0-1.9,0.6-2.6,1.3c-2.3,2.4-5.6,3.5-9.1,3.5c-6.7,0-12.2-4.6-13.3-11h30.1
		c0,0,0,0,0.1,0H75c0.1,0,0.1,0,0.2,0c0.1,0,0.2,0,0.3-0.1C76.9,62.2,78.1,60.8,78.1,59.1 M58.1,46.8c6,0,11.1,3.9,12.8,9.3H45.2
		C47,50.7,52,46.8,58.1,46.8"/>
	<path class="st4" d="M197.8,59.1c-0.2-10.2-9.3-18.9-20-18.9c-11.2,0-20.2,9-20.2,20c0,11.2,9,20.2,20.2,20.2
		c5.4,0,10.4-2.1,14-5.7c0.7-0.6,1.2-1.6,1.2-2.5c0-1.8-1.6-3.4-3.3-3.4c-1,0-2,0.6-2.7,1.3c-2.3,2.4-5.6,3.5-9.1,3.5
		c-6.7,0-12.2-4.6-13.3-11h30c0,0,0,0,0.1,0h0.1c0.1,0,0.2,0,0.3-0.1c0,0,0.1,0,0.1,0C196.6,62.3,197.8,60.9,197.8,59.1 M177.8,46.8
		c6,0,11.1,3.9,12.8,9.3h-25.6C166.7,50.7,171.7,46.8,177.8,46.8"/>
	<path class="st4" d="M329.6,80.1c-0.3,0-0.6-0.2-0.6-0.5v-5.6h-1.3c-0.3,0-0.5-0.2-0.5-0.5c0-0.3,0.2-0.6,0.5-0.6h3.6
		c0.3,0,0.5,0.2,0.5,0.6c0,0.3-0.2,0.5-0.5,0.5h-1.3v5.6C330.2,79.9,330,80.1,329.6,80.1"/>
	<path class="st4" d="M336.2,80.1c-0.3,0-0.5-0.2-0.5-0.4l-1.6-4.6v4.5c0,0.3-0.2,0.5-0.6,0.5c-0.3,0-0.6-0.2-0.6-0.5v-5.9
		c0-0.4,0.4-0.8,0.8-0.8c0.4,0,0.7,0.3,0.8,0.6l1.6,4.6l1.6-4.6c0.1-0.4,0.4-0.6,0.8-0.6c0.4,0,0.8,0.4,0.8,0.8v5.9
		c0,0.3-0.2,0.5-0.5,0.5c-0.3,0-0.6-0.2-0.6-0.5v-4.5c-0.2,0.7-0.6,1.8-0.9,2.7c-0.6,1.8-0.6,1.9-0.6,1.9
		C336.6,79.9,336.4,80.1,336.2,80.1"/>
</g>
</svg>
